<svg width="857" height="833" viewBox="0 0 857 833" fill="none" xmlns="http://www.w3.org/2000/svg">
<path d="M453.08 23.9629C336.087 -20.0499 204.519 0.761376 106.924 78.8283L2.5503 162.317L1.71843 379.957C13.6133 373.246 25.0595 365.542 35.9313 356.866L453.08 23.9629Z" fill="#578F47"/>
<path d="M112.734 735.528L814.639 188.358C697.448 143.563 565.389 163.288 466.53 240.353L0.86453 603.363L0.133399 794.647C40.3159 782.01 78.5141 762.204 112.734 735.528Z" fill="#578F47"/>
<path d="M692.034 730.238L853.819 598.489L791.549 574.686C713.15 544.719 624.744 558.52 559.209 610.957L284.861 830.473L564.43 831.542L692.034 730.238Z" fill="#578F47"/>
</svg>
