<svg width="468" height="147" viewBox="0 0 468 147" fill="none" xmlns="http://www.w3.org/2000/svg">
<path d="M145.375 77.8817V41H163.097C165.184 41 167.076 41.5093 168.774 42.528C170.507 43.5115 171.887 44.8638 172.913 46.5849C173.974 48.3061 174.504 50.2204 174.504 52.328C174.504 54.4706 173.956 56.4201 172.859 58.1763C171.798 59.9326 170.366 61.3376 168.562 62.3914C166.793 63.4452 164.83 63.972 162.672 63.972H151.105V72.1514C151.105 75.3161 148.54 77.8817 145.375 77.8817V77.8817ZM151.105 58.4925H162.407C163.503 58.4925 164.512 58.2115 165.431 57.6495C166.386 57.0875 167.147 56.3498 167.713 55.4366C168.279 54.4882 168.562 53.452 168.562 52.328C168.562 51.2391 168.279 50.2556 167.713 49.3774C167.147 48.4993 166.386 47.7968 165.431 47.2699C164.512 46.743 163.503 46.4796 162.407 46.4796H151.105V58.4925Z" fill="#578F47"/>
<path d="M192.966 78.4086C190.243 78.4086 187.82 77.7939 185.697 76.5645C183.575 75.3 181.895 73.5789 180.657 71.4011C179.454 69.2233 178.853 66.747 178.853 63.972C178.853 61.1971 179.472 58.7384 180.71 56.5957C181.983 54.4179 183.716 52.7143 185.909 51.4849C188.103 50.2556 190.596 49.6409 193.391 49.6409C195.089 49.6409 196.645 49.8692 198.06 50.3258C199.51 50.7473 200.766 51.3444 201.827 52.1172C202.888 52.89 203.737 53.7505 204.374 54.6989C205.011 55.6122 205.364 56.5781 205.435 57.5968L204.109 57.386V55.6855C204.109 52.6672 206.555 50.2204 209.574 50.2204V50.2204V77.8817V77.8817C206.555 77.8817 204.109 75.4349 204.109 72.4167V70.8742L205.276 70.8215C205.134 71.6996 204.71 72.5953 204.003 73.5086C203.33 74.3867 202.411 75.1946 201.243 75.9323C200.112 76.6699 198.838 77.267 197.423 77.7237C196.008 78.1803 194.523 78.4086 192.966 78.4086ZM194.346 73.4032C196.291 73.4032 198.007 72.9993 199.493 72.1914C201.014 71.3835 202.199 70.2771 203.047 68.872C203.896 67.4319 204.321 65.7986 204.321 63.972C204.321 62.2158 203.896 60.6351 203.047 59.2301C202.199 57.8251 201.014 56.7186 199.493 55.9108C198.007 55.0677 196.291 54.6462 194.346 54.6462C192.4 54.6462 190.685 55.0677 189.199 55.9108C187.713 56.7186 186.546 57.8251 185.697 59.2301C184.848 60.6351 184.424 62.2158 184.424 63.972C184.424 65.7986 184.848 67.4319 185.697 68.872C186.546 70.2771 187.713 71.3835 189.199 72.1914C190.685 72.9993 192.4 73.4032 194.346 73.4032Z" fill="#578F47"/>
<path d="M268.61 78.4086C266.453 78.4086 264.56 77.9168 262.933 76.9333C261.306 75.9147 260.033 74.4921 259.113 72.6656C258.229 70.8039 257.786 68.591 257.786 66.0269V55.6855C257.786 52.6672 260.233 50.2204 263.251 50.2204V50.2204V64.3409C263.251 66.2728 263.534 67.9237 264.1 69.2936C264.666 70.6283 265.515 71.647 266.647 72.3495C267.779 73.052 269.176 73.4032 270.839 73.4032C272.042 73.4032 273.156 73.21 274.182 72.8237C275.207 72.4373 276.092 71.8928 276.834 71.1903C277.613 70.4878 278.214 69.6448 278.638 68.6613C279.098 67.6778 279.328 66.5889 279.328 65.3946V55.6855C279.328 52.6672 281.775 50.2204 284.793 50.2204V50.2204V77.8817V77.8817C281.775 77.8817 279.328 75.4349 279.328 72.4166V72.086L280.283 71.4538C279.859 72.648 279.098 73.7896 278.002 74.8785C276.905 75.9323 275.561 76.7928 273.969 77.4602C272.378 78.0925 270.591 78.4086 268.61 78.4086Z" fill="#578F47"/>
<path d="M308.345 78.4086C305.162 78.4086 302.332 77.8115 299.856 76.6172C297.38 75.3878 295.434 73.7194 294.019 71.6118C292.64 69.5043 291.95 67.0806 291.95 64.3409C291.95 62.0928 292.357 60.0731 293.17 58.2817C293.984 56.4903 295.098 54.9448 296.513 53.6452C297.963 52.3455 299.661 51.3444 301.607 50.6419C303.552 49.9394 305.639 49.5882 307.868 49.5882C309.884 49.5882 311.759 49.9219 313.492 50.5892C315.261 51.2566 316.799 52.1875 318.108 53.3817C319.417 54.576 320.425 55.9986 321.132 57.6495C321.875 59.2652 322.229 61.0566 322.194 63.0237L322.141 65.5527H296.407L295.187 61.2323H317.418L316.622 61.9172V60.6527C316.481 59.4935 315.986 58.4573 315.137 57.5441C314.288 56.6308 313.227 55.9108 311.953 55.3839C310.68 54.857 309.318 54.5935 307.868 54.5935C305.745 54.5935 303.888 54.9272 302.297 55.5946C300.74 56.262 299.52 57.2982 298.635 58.7032C297.787 60.0731 297.362 61.8294 297.362 63.972C297.362 65.9039 297.857 67.5724 298.848 68.9774C299.838 70.3824 301.218 71.4713 302.986 72.2441C304.755 73.0168 306.789 73.4032 309.088 73.4032C311.069 73.4032 312.784 73.1222 314.235 72.5602V72.5602C316.625 71.634 319.564 72.0523 320.973 74.1936V74.1936C320.054 74.9663 318.904 75.6864 317.524 76.3538C316.145 76.986 314.659 77.4953 313.067 77.8817C311.511 78.233 309.937 78.4086 308.345 78.4086Z" fill="#578F47"/>
<path d="M346.385 77.8817V41H363.788C366.441 41 368.67 41.3513 370.474 42.0538C372.278 42.7563 373.64 43.81 374.559 45.2151C375.514 46.5849 375.992 48.271 375.992 50.2731C375.992 52.2401 375.391 53.9437 374.188 55.3839C372.985 56.7889 371.287 57.7548 369.094 58.2817L369.253 57.2806C370.881 57.6319 372.349 58.229 373.657 59.072C374.966 59.9151 376.01 61.0039 376.788 62.3387C377.566 63.6735 377.955 65.2366 377.955 67.028C377.955 68.9247 377.601 70.5756 376.894 71.9806C376.222 73.3505 375.267 74.4746 374.029 75.3527C372.826 76.1957 371.429 76.828 369.837 77.2495C368.245 77.671 366.512 77.8817 364.637 77.8817H346.385ZM352.115 72.4022H364.531C366.088 72.4022 367.414 72.209 368.511 71.8226C369.643 71.4011 370.527 70.7864 371.164 69.9785C371.8 69.1355 372.119 68.1168 372.119 66.9226C372.119 65.6932 371.747 64.6921 371.004 63.9194C370.297 63.1466 369.342 62.5846 368.139 62.2333C366.972 61.847 365.681 61.6538 364.266 61.6538H352.115V72.4022ZM352.115 56.1742H364.001C365.133 56.1742 366.158 55.9634 367.078 55.5419C368.033 55.1204 368.776 54.5409 369.307 53.8032C369.872 53.0656 370.155 52.2226 370.155 51.2742C370.155 49.6584 369.536 48.4642 368.298 47.6914C367.06 46.8835 365.416 46.4796 363.364 46.4796H352.115V56.1742Z" fill="#578F47"/>
<path d="M399.161 78.4086C395.977 78.4086 393.147 77.8115 390.671 76.6172C388.195 75.3878 386.25 73.7194 384.835 71.6118C383.455 69.5043 382.766 67.0806 382.766 64.3409C382.766 62.0928 383.172 60.0731 383.986 58.2817C384.8 56.4903 385.914 54.9448 387.329 53.6452C388.779 52.3455 390.477 51.3444 392.422 50.6419C394.368 49.9394 396.455 49.5882 398.683 49.5882C400.7 49.5882 402.574 49.9219 404.308 50.5892C406.076 51.2566 407.615 52.1875 408.924 53.3817C410.232 54.576 411.241 55.9986 411.948 57.6495C412.691 59.2652 413.045 61.0566 413.009 63.0237L412.956 65.5527H387.223L386.002 61.2323H408.234L407.438 61.9172V60.6527C407.296 59.4935 406.801 58.4573 405.952 57.5441C405.103 56.6308 404.042 55.9108 402.769 55.3839C401.495 54.857 400.134 54.5935 398.683 54.5935C396.561 54.5935 394.704 54.9272 393.112 55.5946C391.556 56.262 390.335 57.2982 389.451 58.7032C388.602 60.0731 388.178 61.8294 388.178 63.972C388.178 65.9039 388.673 67.5724 389.663 68.9774C390.654 70.3824 392.033 71.4713 393.802 72.2441C395.57 73.0168 397.604 73.4032 399.904 73.4032C401.884 73.4032 403.6 73.1222 405.05 72.5602V72.5602C407.44 71.634 410.38 72.0523 411.789 74.1936V74.1936C410.869 74.9663 409.72 75.6864 408.34 76.3538C406.96 76.986 405.475 77.4953 403.883 77.8817C402.327 78.233 400.753 78.4086 399.161 78.4086Z" fill="#578F47"/>
<path d="M420.63 77.8817V50.2204V50.2204C423.678 50.2204 426.148 52.691 426.148 55.7385V56.9645L424.716 57.1753C424.999 56.3323 425.494 55.4717 426.201 54.5935C426.909 53.7154 427.793 52.9251 428.854 52.2226C429.915 51.4849 431.083 50.8878 432.356 50.4312C433.665 49.9746 435.062 49.7462 436.548 49.7462C438.281 49.7462 439.837 50.0272 441.217 50.5892C442.597 51.1513 443.711 52.0118 444.56 53.171C445.444 54.3301 446.028 55.7703 446.311 57.4914L445.037 57.1753L445.409 56.2796C445.833 55.5419 446.417 54.8043 447.16 54.0667C447.938 53.2939 448.84 52.5914 449.866 51.9591C450.927 51.2918 452.059 50.7649 453.261 50.3785C454.464 49.957 455.702 49.7462 456.975 49.7462C459.452 49.7462 461.45 50.2204 462.971 51.1688C464.492 52.1172 465.606 53.4695 466.314 55.2258C467.021 56.9821 467.375 59.072 467.375 61.4957V72.3636C467.375 75.4112 464.904 77.8817 461.857 77.8817V77.8817V62.0226C461.857 60.4419 461.627 59.1247 461.167 58.071C460.743 56.9821 460.071 56.1566 459.151 55.5946C458.231 55.0326 457.029 54.7516 455.543 54.7516C454.305 54.7516 453.138 54.9624 452.041 55.3839C450.98 55.7703 450.042 56.3323 449.229 57.0699C448.415 57.7724 447.779 58.5979 447.319 59.5462C446.894 60.4946 446.682 61.5133 446.682 62.6021V72.3636C446.682 75.4112 444.212 77.8817 441.164 77.8817V77.8817V61.9172C441.164 60.4419 440.916 59.1774 440.421 58.1237C439.926 57.0348 439.183 56.2093 438.193 55.6473C437.202 55.0502 435.946 54.7516 434.425 54.7516C433.223 54.7516 432.126 54.9624 431.136 55.3839C430.145 55.8054 429.261 56.3674 428.483 57.0699C427.74 57.7724 427.156 58.5627 426.732 59.4409C426.343 60.2839 426.148 61.162 426.148 62.0753V72.3636C426.148 75.4112 423.678 77.8817 420.63 77.8817V77.8817Z" fill="#578F47"/>
<path fill-rule="evenodd" clip-rule="evenodd" d="M226.47 89.0516C228.557 89.6839 230.838 90 233.314 90C235.437 90 237.417 89.6839 239.257 89.0516C241.096 88.4194 242.688 87.4885 244.032 86.2591C245.376 85.0297 246.42 83.5018 247.163 81.6753C247.941 79.8839 248.33 77.7763 248.33 75.3527V50.2204H246.773C244.614 50.2204 242.865 51.9701 242.865 54.1283V54.1283C242.938 54.2123 243.009 54.2971 243.077 54.3828C243.643 55.0151 243.961 55.6473 244.032 56.2796L242.865 56.7011V54.1283C242.367 53.5584 241.748 53.0286 241.008 52.5387C240.159 51.9767 239.221 51.4849 238.196 51.0634C237.17 50.6068 236.109 50.2556 235.012 50.0097C233.951 49.7638 232.943 49.6409 231.988 49.6409C229.087 49.6409 226.505 50.2731 224.241 51.5376C221.977 52.767 220.191 54.4706 218.882 56.6484C217.609 58.791 216.972 61.2498 216.972 64.0247C216.972 66.7996 217.609 69.276 218.882 71.4538C220.156 73.5964 221.889 75.3 224.082 76.5645C226.31 77.7939 228.857 78.4086 231.722 78.4086C233.597 78.4086 235.384 78.0925 237.081 77.4602C238.815 76.7928 240.247 75.9674 241.379 74.9839C242.017 74.4273 242.512 73.8655 242.865 73.2985V71.5065L243.448 71.8753C243.352 72.3533 243.158 72.8277 242.865 73.2985V75.9849C242.865 77.952 242.476 79.6204 241.698 80.9903C240.919 82.3602 239.823 83.3964 238.408 84.0989C236.993 84.8014 235.295 85.1527 233.314 85.1527C232.481 85.1527 230.048 85.1527 227.586 84.4865C225.322 83.8735 222.4 84.5447 221.429 86.6806V86.6806C222.702 87.629 224.383 88.4194 226.47 89.0516ZM238.196 72.1914C236.675 72.9993 234.924 73.4032 232.943 73.4032C230.927 73.4032 229.14 72.9993 227.584 72.1914C226.027 71.3835 224.789 70.2771 223.87 68.872C222.985 67.4319 222.543 65.8161 222.543 64.0247C222.543 62.2333 222.985 60.6351 223.87 59.2301C224.789 57.79 226.027 56.666 227.584 55.8581C229.14 55.0151 230.927 54.5935 232.943 54.5935C234.924 54.5935 236.675 54.9975 238.196 55.8054C239.717 56.6133 240.902 57.7373 241.751 59.1774C242.635 60.5824 243.077 62.1982 243.077 64.0247C243.077 65.8513 242.653 67.467 241.804 68.872C240.955 70.2771 239.752 71.3835 238.196 72.1914Z" fill="#578F47"/>
<path d="M244.032 56.2796C243.961 55.6473 243.643 55.0151 243.077 54.3828C243.009 54.2971 242.938 54.2123 242.865 54.1283V56.7011L244.032 56.2796Z" fill="#578F47"/>
<path d="M243.448 71.8753L242.865 71.5065V73.2985C243.158 72.8277 243.352 72.3533 243.448 71.8753Z" fill="#578F47"/>
<mask id="path-2-outside-1_217_151" maskUnits="userSpaceOnUse" x="144" y="98" width="324" height="20" fill="black">
<rect fill="white" x="144" y="98" width="324" height="20"/>
<path d="M145 99.3158H149.298C150.216 99.3158 151.085 99.4386 151.906 99.6842C152.736 99.9298 153.405 100.355 153.911 100.961C154.427 101.557 154.684 102.399 154.684 103.487C154.684 104.241 154.536 104.925 154.239 105.539C153.942 106.154 153.584 106.649 153.164 107.026C152.745 107.404 152.352 107.614 151.985 107.658C152.273 107.675 152.618 107.772 153.02 107.947C153.422 108.123 153.815 108.382 154.2 108.724C154.593 109.057 154.916 109.482 155.169 110C155.431 110.518 155.562 111.123 155.562 111.816C155.562 112.763 155.379 113.605 155.012 114.342C154.654 115.07 154.095 115.645 153.335 116.066C152.575 116.478 151.596 116.684 150.399 116.684H145V99.3158ZM146.442 115.382H150.504C151.456 115.382 152.186 115.211 152.693 114.868C153.208 114.518 153.562 114.07 153.754 113.526C153.955 112.974 154.055 112.408 154.055 111.829C154.055 110.864 153.732 110.061 153.086 109.421C152.448 108.781 151.513 108.461 150.281 108.461H146.442V115.382ZM146.442 107.184H149.954C150.705 107.184 151.321 107.009 151.801 106.658C152.282 106.298 152.636 105.851 152.863 105.316C153.099 104.781 153.217 104.246 153.217 103.711C153.217 102.57 152.88 101.772 152.208 101.316C151.535 100.851 150.635 100.618 149.508 100.618H146.442V107.184Z"/>
<path d="M209.306 99.3158H214.888C215.788 99.3158 216.614 99.5044 217.365 99.8816C218.125 100.259 218.732 100.811 219.187 101.539C219.65 102.268 219.881 103.167 219.881 104.237C219.881 105.298 219.658 106.184 219.213 106.895C218.776 107.596 218.247 108.127 217.627 108.487C217.016 108.838 216.443 109.022 215.91 109.039L220.235 116.684H218.558L214.416 109.145H210.773V116.684H209.306V99.3158ZM210.773 107.947H214.39C215.57 107.947 216.526 107.649 217.26 107.053C218.003 106.456 218.374 105.526 218.374 104.263C218.374 102.991 218.007 102.07 217.273 101.5C216.539 100.921 215.578 100.632 214.39 100.632H210.773V107.947Z"/>
<path d="M277.746 99.3158H279.358L285.556 116.684H283.997L282.385 112.184H274.732L273.107 116.684H271.521L277.746 99.3158ZM275.177 110.803H281.952L278.571 101.171H278.532L275.177 110.803Z"/>
<path d="M343.186 99C344.147 99 344.964 99.114 345.637 99.3421C346.318 99.5702 346.851 99.8114 347.236 100.066C347.62 100.311 347.843 100.469 347.904 100.539L347.092 101.776C346.961 101.662 346.729 101.496 346.397 101.276C346.074 101.057 345.654 100.86 345.139 100.684C344.624 100.5 344.012 100.408 343.304 100.408C342.177 100.408 341.291 100.645 340.644 101.118C339.998 101.592 339.674 102.25 339.674 103.092C339.674 103.662 339.845 104.162 340.185 104.592C340.526 105.013 340.989 105.395 341.574 105.737C342.169 106.079 342.837 106.421 343.58 106.763C344.165 107.026 344.75 107.32 345.336 107.645C345.93 107.969 346.471 108.351 346.961 108.789C347.459 109.228 347.856 109.737 348.153 110.316C348.459 110.895 348.612 111.566 348.612 112.329C348.612 113.022 348.472 113.654 348.192 114.224C347.913 114.794 347.515 115.289 347 115.711C346.493 116.123 345.89 116.443 345.191 116.671C344.493 116.89 343.724 117 342.885 117C341.889 117 340.985 116.873 340.172 116.618C339.36 116.355 338.705 116.088 338.207 115.816C337.709 115.535 337.433 115.368 337.381 115.316L338.259 114.013C338.364 114.101 338.547 114.232 338.809 114.408C339.08 114.575 339.417 114.75 339.818 114.934C340.22 115.118 340.683 115.272 341.208 115.395C341.74 115.518 342.317 115.579 342.937 115.579C344.283 115.579 345.301 115.263 345.991 114.632C346.69 114 347.039 113.206 347.039 112.25C347.039 111.504 346.816 110.868 346.371 110.342C345.925 109.807 345.353 109.338 344.654 108.934C343.955 108.531 343.226 108.149 342.466 107.789C341.662 107.412 340.932 107.009 340.277 106.579C339.622 106.149 339.098 105.649 338.705 105.079C338.311 104.509 338.115 103.825 338.115 103.026C338.115 102.246 338.338 101.553 338.783 100.947C339.237 100.342 339.845 99.8684 340.605 99.5263C341.374 99.1754 342.234 99 343.186 99Z"/>
<path d="M402.49 99.3158H403.971V116.684H402.49V99.3158Z"/>
<path d="M458.482 99.3158H459.95V115.303H467V116.684H458.482V99.3158Z"/>
</mask>
<path d="M145 99.3158H149.298C150.216 99.3158 151.085 99.4386 151.906 99.6842C152.736 99.9298 153.405 100.355 153.911 100.961C154.427 101.557 154.684 102.399 154.684 103.487C154.684 104.241 154.536 104.925 154.239 105.539C153.942 106.154 153.584 106.649 153.164 107.026C152.745 107.404 152.352 107.614 151.985 107.658C152.273 107.675 152.618 107.772 153.02 107.947C153.422 108.123 153.815 108.382 154.2 108.724C154.593 109.057 154.916 109.482 155.169 110C155.431 110.518 155.562 111.123 155.562 111.816C155.562 112.763 155.379 113.605 155.012 114.342C154.654 115.07 154.095 115.645 153.335 116.066C152.575 116.478 151.596 116.684 150.399 116.684H145V99.3158ZM146.442 115.382H150.504C151.456 115.382 152.186 115.211 152.693 114.868C153.208 114.518 153.562 114.07 153.754 113.526C153.955 112.974 154.055 112.408 154.055 111.829C154.055 110.864 153.732 110.061 153.086 109.421C152.448 108.781 151.513 108.461 150.281 108.461H146.442V115.382ZM146.442 107.184H149.954C150.705 107.184 151.321 107.009 151.801 106.658C152.282 106.298 152.636 105.851 152.863 105.316C153.099 104.781 153.217 104.246 153.217 103.711C153.217 102.57 152.88 101.772 152.208 101.316C151.535 100.851 150.635 100.618 149.508 100.618H146.442V107.184Z" fill="#FEB700"/>
<path d="M209.306 99.3158H214.888C215.788 99.3158 216.614 99.5044 217.365 99.8816C218.125 100.259 218.732 100.811 219.187 101.539C219.65 102.268 219.881 103.167 219.881 104.237C219.881 105.298 219.658 106.184 219.213 106.895C218.776 107.596 218.247 108.127 217.627 108.487C217.016 108.838 216.443 109.022 215.91 109.039L220.235 116.684H218.558L214.416 109.145H210.773V116.684H209.306V99.3158ZM210.773 107.947H214.39C215.57 107.947 216.526 107.649 217.26 107.053C218.003 106.456 218.374 105.526 218.374 104.263C218.374 102.991 218.007 102.07 217.273 101.5C216.539 100.921 215.578 100.632 214.39 100.632H210.773V107.947Z" fill="#FEB700"/>
<path d="M277.746 99.3158H279.358L285.556 116.684H283.997L282.385 112.184H274.732L273.107 116.684H271.521L277.746 99.3158ZM275.177 110.803H281.952L278.571 101.171H278.532L275.177 110.803Z" fill="#FEB700"/>
<path d="M343.186 99C344.147 99 344.964 99.114 345.637 99.3421C346.318 99.5702 346.851 99.8114 347.236 100.066C347.62 100.311 347.843 100.469 347.904 100.539L347.092 101.776C346.961 101.662 346.729 101.496 346.397 101.276C346.074 101.057 345.654 100.86 345.139 100.684C344.624 100.5 344.012 100.408 343.304 100.408C342.177 100.408 341.291 100.645 340.644 101.118C339.998 101.592 339.674 102.25 339.674 103.092C339.674 103.662 339.845 104.162 340.185 104.592C340.526 105.013 340.989 105.395 341.574 105.737C342.169 106.079 342.837 106.421 343.58 106.763C344.165 107.026 344.75 107.32 345.336 107.645C345.93 107.969 346.471 108.351 346.961 108.789C347.459 109.228 347.856 109.737 348.153 110.316C348.459 110.895 348.612 111.566 348.612 112.329C348.612 113.022 348.472 113.654 348.192 114.224C347.913 114.794 347.515 115.289 347 115.711C346.493 116.123 345.89 116.443 345.191 116.671C344.493 116.89 343.724 117 342.885 117C341.889 117 340.985 116.873 340.172 116.618C339.36 116.355 338.705 116.088 338.207 115.816C337.709 115.535 337.433 115.368 337.381 115.316L338.259 114.013C338.364 114.101 338.547 114.232 338.809 114.408C339.08 114.575 339.417 114.75 339.818 114.934C340.22 115.118 340.683 115.272 341.208 115.395C341.74 115.518 342.317 115.579 342.937 115.579C344.283 115.579 345.301 115.263 345.991 114.632C346.69 114 347.039 113.206 347.039 112.25C347.039 111.504 346.816 110.868 346.371 110.342C345.925 109.807 345.353 109.338 344.654 108.934C343.955 108.531 343.226 108.149 342.466 107.789C341.662 107.412 340.932 107.009 340.277 106.579C339.622 106.149 339.098 105.649 338.705 105.079C338.311 104.509 338.115 103.825 338.115 103.026C338.115 102.246 338.338 101.553 338.783 100.947C339.237 100.342 339.845 99.8684 340.605 99.5263C341.374 99.1754 342.234 99 343.186 99Z" fill="#FEB700"/>
<path d="M402.49 99.3158H403.971V116.684H402.49V99.3158Z" fill="#FEB700"/>
<path d="M458.482 99.3158H459.95V115.303H467V116.684H458.482V99.3158Z" fill="#FEB700"/>
<path d="M145 99.3158H149.298C150.216 99.3158 151.085 99.4386 151.906 99.6842C152.736 99.9298 153.405 100.355 153.911 100.961C154.427 101.557 154.684 102.399 154.684 103.487C154.684 104.241 154.536 104.925 154.239 105.539C153.942 106.154 153.584 106.649 153.164 107.026C152.745 107.404 152.352 107.614 151.985 107.658C152.273 107.675 152.618 107.772 153.02 107.947C153.422 108.123 153.815 108.382 154.2 108.724C154.593 109.057 154.916 109.482 155.169 110C155.431 110.518 155.562 111.123 155.562 111.816C155.562 112.763 155.379 113.605 155.012 114.342C154.654 115.07 154.095 115.645 153.335 116.066C152.575 116.478 151.596 116.684 150.399 116.684H145V99.3158ZM146.442 115.382H150.504C151.456 115.382 152.186 115.211 152.693 114.868C153.208 114.518 153.562 114.07 153.754 113.526C153.955 112.974 154.055 112.408 154.055 111.829C154.055 110.864 153.732 110.061 153.086 109.421C152.448 108.781 151.513 108.461 150.281 108.461H146.442V115.382ZM146.442 107.184H149.954C150.705 107.184 151.321 107.009 151.801 106.658C152.282 106.298 152.636 105.851 152.863 105.316C153.099 104.781 153.217 104.246 153.217 103.711C153.217 102.57 152.88 101.772 152.208 101.316C151.535 100.851 150.635 100.618 149.508 100.618H146.442V107.184Z" stroke="#FEB700" mask="url(#path-2-outside-1_217_151)"/>
<path d="M209.306 99.3158H214.888C215.788 99.3158 216.614 99.5044 217.365 99.8816C218.125 100.259 218.732 100.811 219.187 101.539C219.65 102.268 219.881 103.167 219.881 104.237C219.881 105.298 219.658 106.184 219.213 106.895C218.776 107.596 218.247 108.127 217.627 108.487C217.016 108.838 216.443 109.022 215.91 109.039L220.235 116.684H218.558L214.416 109.145H210.773V116.684H209.306V99.3158ZM210.773 107.947H214.39C215.57 107.947 216.526 107.649 217.26 107.053C218.003 106.456 218.374 105.526 218.374 104.263C218.374 102.991 218.007 102.07 217.273 101.5C216.539 100.921 215.578 100.632 214.39 100.632H210.773V107.947Z" stroke="#FEB700" mask="url(#path-2-outside-1_217_151)"/>
<path d="M277.746 99.3158H279.358L285.556 116.684H283.997L282.385 112.184H274.732L273.107 116.684H271.521L277.746 99.3158ZM275.177 110.803H281.952L278.571 101.171H278.532L275.177 110.803Z" stroke="#FEB700" mask="url(#path-2-outside-1_217_151)"/>
<path d="M343.186 99C344.147 99 344.964 99.114 345.637 99.3421C346.318 99.5702 346.851 99.8114 347.236 100.066C347.62 100.311 347.843 100.469 347.904 100.539L347.092 101.776C346.961 101.662 346.729 101.496 346.397 101.276C346.074 101.057 345.654 100.86 345.139 100.684C344.624 100.5 344.012 100.408 343.304 100.408C342.177 100.408 341.291 100.645 340.644 101.118C339.998 101.592 339.674 102.25 339.674 103.092C339.674 103.662 339.845 104.162 340.185 104.592C340.526 105.013 340.989 105.395 341.574 105.737C342.169 106.079 342.837 106.421 343.58 106.763C344.165 107.026 344.75 107.32 345.336 107.645C345.93 107.969 346.471 108.351 346.961 108.789C347.459 109.228 347.856 109.737 348.153 110.316C348.459 110.895 348.612 111.566 348.612 112.329C348.612 113.022 348.472 113.654 348.192 114.224C347.913 114.794 347.515 115.289 347 115.711C346.493 116.123 345.89 116.443 345.191 116.671C344.493 116.89 343.724 117 342.885 117C341.889 117 340.985 116.873 340.172 116.618C339.36 116.355 338.705 116.088 338.207 115.816C337.709 115.535 337.433 115.368 337.381 115.316L338.259 114.013C338.364 114.101 338.547 114.232 338.809 114.408C339.08 114.575 339.417 114.75 339.818 114.934C340.22 115.118 340.683 115.272 341.208 115.395C341.74 115.518 342.317 115.579 342.937 115.579C344.283 115.579 345.301 115.263 345.991 114.632C346.69 114 347.039 113.206 347.039 112.25C347.039 111.504 346.816 110.868 346.371 110.342C345.925 109.807 345.353 109.338 344.654 108.934C343.955 108.531 343.226 108.149 342.466 107.789C341.662 107.412 340.932 107.009 340.277 106.579C339.622 106.149 339.098 105.649 338.705 105.079C338.311 104.509 338.115 103.825 338.115 103.026C338.115 102.246 338.338 101.553 338.783 100.947C339.237 100.342 339.845 99.8684 340.605 99.5263C341.374 99.1754 342.234 99 343.186 99Z" stroke="#FEB700" mask="url(#path-2-outside-1_217_151)"/>
<path d="M402.49 99.3158H403.971V116.684H402.49V99.3158Z" stroke="#FEB700" mask="url(#path-2-outside-1_217_151)"/>
<path d="M458.482 99.3158H459.95V115.303H467V116.684H458.482V99.3158Z" stroke="#FEB700" mask="url(#path-2-outside-1_217_151)"/>
<path d="M21.6844 65.2502L105.391 115.894C105.391 102.09 98.1845 89.292 86.3949 82.1591L2.68854 31.515C2.68854 45.3194 9.89481 58.1172 21.6844 65.2502Z" fill="#FEB700"/>
<path d="M43.2504 0H63.1222V22.8277L88.445 37.8434C100.281 44.862 107.542 57.6237 107.542 71.4096L43.2504 33.618V11.3757V0Z" fill="#578F47"/>
<path d="M64.5249 146.62H43.9943V123.127L19.2139 108.556C7.3711 101.592 0.0725631 88.8871 0 75.1338L64.2443 113.008L64.5249 113.174V135.199V146.62Z" fill="#578F47"/>
</svg>
