<svg width="324" height="252" viewBox="0 0 324 252" fill="none" xmlns="http://www.w3.org/2000/svg">
<path d="M1.375 211.882V175H19.0967C21.1836 175 23.0761 175.509 24.7739 176.528C26.5072 177.511 27.8867 178.864 28.9125 180.585C29.9737 182.306 30.5043 184.22 30.5043 186.328C30.5043 188.471 29.956 190.42 28.8595 192.176C27.7983 193.933 26.3657 195.338 24.5617 196.391C22.7931 197.445 20.8299 197.972 18.6722 197.972H7.10536V206.151C7.10536 209.316 4.53979 211.882 1.375 211.882V211.882ZM7.10536 192.492H18.4069C19.5034 192.492 20.5116 192.211 21.4312 191.649C22.3863 191.087 23.1468 190.35 23.7128 189.437C24.2787 188.488 24.5617 187.452 24.5617 186.328C24.5617 185.239 24.2787 184.256 23.7128 183.377C23.1468 182.499 22.3863 181.797 21.4312 181.27C20.5116 180.743 19.5034 180.48 18.4069 180.48H7.10536V192.492Z" fill="#578F47"/>
<path d="M48.9663 212.409C46.2426 212.409 43.8196 211.794 41.6972 210.565C39.5749 209.3 37.8947 207.579 36.6566 205.401C35.454 203.223 34.8526 200.747 34.8526 197.972C34.8526 195.197 35.4717 192.738 36.7097 190.596C37.9831 188.418 39.7164 186.714 41.9095 185.485C44.1026 184.256 46.5963 183.641 49.3908 183.641C51.0886 183.641 52.645 183.869 54.0599 184.326C55.5102 184.747 56.7659 185.344 57.8271 186.117C58.8883 186.89 59.7372 187.751 60.3739 188.699C61.0106 189.612 61.3644 190.578 61.4351 191.597L60.1086 191.386V189.685C60.1086 186.667 62.5554 184.22 65.5737 184.22V184.22V211.882V211.882C62.5554 211.882 60.1086 209.435 60.1086 206.417V204.874L61.2759 204.822C61.1344 205.7 60.71 206.595 60.0025 207.509C59.3305 208.387 58.4108 209.195 57.2435 209.932C56.1116 210.67 54.8381 211.267 53.4232 211.724C52.0083 212.18 50.5227 212.409 48.9663 212.409ZM50.3458 207.403C52.2913 207.403 54.0069 206.999 55.4925 206.191C57.0135 205.384 58.1985 204.277 59.0475 202.872C59.8964 201.432 60.3209 199.799 60.3209 197.972C60.3209 196.216 59.8964 194.635 59.0475 193.23C58.1985 191.825 57.0135 190.719 55.4925 189.911C54.0069 189.068 52.2913 188.646 50.3458 188.646C48.4003 188.646 46.6848 189.068 45.1991 189.911C43.7135 190.719 42.5462 191.825 41.6972 193.23C40.8483 194.635 40.4238 196.216 40.4238 197.972C40.4238 199.799 40.8483 201.432 41.6972 202.872C42.5462 204.277 43.7135 205.384 45.1991 206.191C46.6848 206.999 48.4003 207.403 50.3458 207.403Z" fill="#578F47"/>
<path d="M124.61 212.409C122.453 212.409 120.56 211.917 118.933 210.933C117.306 209.915 116.033 208.492 115.113 206.666C114.229 204.804 113.786 202.591 113.786 200.027V189.685C113.786 186.667 116.233 184.22 119.251 184.22V184.22V198.341C119.251 200.273 119.534 201.924 120.1 203.294C120.666 204.628 121.515 205.647 122.647 206.349C123.779 207.052 125.176 207.403 126.839 207.403C128.042 207.403 129.156 207.21 130.182 206.824C131.207 206.437 132.092 205.893 132.834 205.19C133.613 204.488 134.214 203.645 134.638 202.661C135.098 201.678 135.328 200.589 135.328 199.395V189.686C135.328 186.667 137.775 184.22 140.793 184.22V184.22V211.882V211.882C137.775 211.882 135.328 209.435 135.328 206.417V206.086L136.283 205.454C135.859 206.648 135.098 207.79 134.002 208.878C132.905 209.932 131.561 210.793 129.969 211.46C128.378 212.092 126.591 212.409 124.61 212.409Z" fill="#578F47"/>
<path d="M164.345 212.409C161.162 212.409 158.332 211.811 155.856 210.617C153.38 209.388 151.434 207.719 150.019 205.612C148.64 203.504 147.95 201.081 147.95 198.341C147.95 196.093 148.357 194.073 149.17 192.282C149.984 190.49 151.098 188.945 152.513 187.645C153.963 186.346 155.661 185.344 157.607 184.642C159.552 183.939 161.639 183.588 163.868 183.588C165.884 183.588 167.759 183.922 169.492 184.589C171.261 185.257 172.799 186.187 174.108 187.382C175.417 188.576 176.425 189.999 177.132 191.649C177.875 193.265 178.229 195.057 178.194 197.024L178.141 199.553H152.407L151.187 195.232H173.418L172.622 195.917V194.653C172.481 193.494 171.986 192.457 171.137 191.544C170.288 190.631 169.227 189.911 167.953 189.384C166.68 188.857 165.318 188.594 163.868 188.594C161.745 188.594 159.888 188.927 158.297 189.595C156.74 190.262 155.52 191.298 154.635 192.703C153.787 194.073 153.362 195.829 153.362 197.972C153.362 199.904 153.857 201.572 154.848 202.977C155.838 204.382 157.218 205.471 158.986 206.244C160.755 207.017 162.789 207.403 165.088 207.403C167.069 207.403 168.784 207.122 170.235 206.56V206.56C172.625 205.634 175.564 206.052 176.973 208.194V208.194C176.054 208.966 174.904 209.686 173.524 210.354C172.145 210.986 170.659 211.495 169.067 211.882C167.511 212.233 165.937 212.409 164.345 212.409Z" fill="#578F47"/>
<path d="M202.385 211.882V175H219.788C222.441 175 224.67 175.351 226.474 176.054C228.278 176.756 229.64 177.81 230.559 179.215C231.514 180.585 231.992 182.271 231.992 184.273C231.992 186.24 231.391 187.944 230.188 189.384C228.985 190.789 227.287 191.755 225.094 192.282L225.253 191.281C226.881 191.632 228.349 192.229 229.657 193.072C230.966 193.915 232.01 195.004 232.788 196.339C233.566 197.673 233.955 199.237 233.955 201.028C233.955 202.925 233.601 204.576 232.894 205.981C232.222 207.351 231.267 208.475 230.029 209.353C228.826 210.196 227.429 210.828 225.837 211.249C224.245 211.671 222.512 211.882 220.637 211.882H202.385ZM208.115 206.402H220.531C222.088 206.402 223.414 206.209 224.511 205.823C225.643 205.401 226.527 204.786 227.164 203.978C227.8 203.135 228.119 202.117 228.119 200.923C228.119 199.693 227.747 198.692 227.004 197.919C226.297 197.147 225.342 196.585 224.139 196.233C222.972 195.847 221.681 195.654 220.266 195.654H208.115V206.402ZM208.115 190.174H220.001C221.133 190.174 222.158 189.963 223.078 189.542C224.033 189.12 224.776 188.541 225.307 187.803C225.872 187.066 226.155 186.223 226.155 185.274C226.155 183.658 225.536 182.464 224.298 181.691C223.06 180.884 221.416 180.48 219.364 180.48H208.115V190.174Z" fill="#578F47"/>
<path d="M255.161 212.409C251.977 212.409 249.147 211.811 246.671 210.617C244.195 209.388 242.25 207.719 240.835 205.612C239.455 203.504 238.766 201.081 238.766 198.341C238.766 196.093 239.172 194.073 239.986 192.282C240.8 190.49 241.914 188.945 243.329 187.645C244.779 186.346 246.477 185.344 248.422 184.642C250.368 183.939 252.455 183.588 254.683 183.588C256.7 183.588 258.574 183.922 260.308 184.589C262.076 185.257 263.615 186.187 264.924 187.382C266.232 188.576 267.241 189.999 267.948 191.649C268.691 193.265 269.045 195.057 269.009 197.024L268.956 199.553H243.223L242.002 195.232H264.234L263.438 195.917V194.653C263.296 193.494 262.801 192.457 261.952 191.544C261.103 190.631 260.042 189.911 258.769 189.384C257.495 188.857 256.134 188.594 254.683 188.594C252.561 188.594 250.704 188.927 249.112 189.595C247.556 190.262 246.335 191.298 245.451 192.703C244.602 194.073 244.178 195.829 244.178 197.972C244.178 199.904 244.673 201.572 245.663 202.977C246.654 204.382 248.033 205.471 249.802 206.244C251.57 207.017 253.604 207.403 255.904 207.403C257.884 207.403 259.6 207.122 261.05 206.56V206.56C263.44 205.634 266.38 206.052 267.789 208.194V208.194C266.869 208.966 265.72 209.686 264.34 210.354C262.96 210.986 261.475 211.495 259.883 211.882C258.327 212.233 256.753 212.409 255.161 212.409Z" fill="#578F47"/>
<path d="M276.63 211.882V184.22V184.22C279.678 184.22 282.148 186.691 282.148 189.739V190.965L280.716 191.175C280.999 190.332 281.494 189.472 282.201 188.594C282.909 187.715 283.793 186.925 284.854 186.223C285.915 185.485 287.083 184.888 288.356 184.431C289.665 183.975 291.062 183.746 292.548 183.746C294.281 183.746 295.837 184.027 297.217 184.589C298.597 185.151 299.711 186.012 300.56 187.171C301.444 188.33 302.028 189.77 302.311 191.491L301.037 191.175L301.409 190.28C301.833 189.542 302.417 188.804 303.16 188.067C303.938 187.294 304.84 186.591 305.866 185.959C306.927 185.292 308.059 184.765 309.261 184.378C310.464 183.957 311.702 183.746 312.975 183.746C315.452 183.746 317.45 184.22 318.971 185.169C320.492 186.117 321.606 187.47 322.314 189.226C323.021 190.982 323.375 193.072 323.375 195.496V206.364C323.375 209.411 320.904 211.882 317.857 211.882V211.882V196.023C317.857 194.442 317.627 193.125 317.167 192.071C316.743 190.982 316.071 190.157 315.151 189.595C314.231 189.033 313.029 188.752 311.543 188.752C310.305 188.752 309.138 188.962 308.041 189.384C306.98 189.77 306.042 190.332 305.229 191.07C304.415 191.772 303.779 192.598 303.319 193.546C302.894 194.495 302.682 195.513 302.682 196.602V206.364C302.682 209.411 300.212 211.882 297.164 211.882V211.882V195.917C297.164 194.442 296.916 193.177 296.421 192.124C295.926 191.035 295.183 190.209 294.193 189.647C293.202 189.05 291.946 188.752 290.425 188.752C289.223 188.752 288.126 188.962 287.136 189.384C286.145 189.805 285.261 190.367 284.483 191.07C283.74 191.772 283.156 192.563 282.732 193.441C282.343 194.284 282.148 195.162 282.148 196.075V206.364C282.148 209.411 279.678 211.882 276.63 211.882V211.882Z" fill="#578F47"/>
<path fill-rule="evenodd" clip-rule="evenodd" d="M82.4696 223.052C84.5566 223.684 86.8381 224 89.3142 224C91.4366 224 93.4174 223.684 95.2568 223.052C97.0962 222.419 98.6879 221.489 100.032 220.259C101.376 219.03 102.42 217.502 103.163 215.675C103.941 213.884 104.33 211.776 104.33 209.353V184.22H102.773C100.614 184.22 98.8648 185.97 98.8648 188.128V188.128C98.9382 188.212 99.0089 188.297 99.077 188.383C99.643 189.015 99.9614 189.647 100.032 190.28L98.8648 190.701V188.128C98.3667 187.558 97.7477 187.029 97.0078 186.539C96.1588 185.977 95.2214 185.485 94.1956 185.063C93.1698 184.607 92.1087 184.256 91.0121 184.01C89.9509 183.764 88.9428 183.641 87.9878 183.641C85.0872 183.641 82.505 184.273 80.2412 185.538C77.9773 186.767 76.191 188.471 74.8822 190.648C73.6088 192.791 72.9721 195.25 72.9721 198.025C72.9721 200.8 73.6088 203.276 74.8822 205.454C76.1556 207.596 77.8889 209.3 80.082 210.565C82.3105 211.794 84.8573 212.409 87.7225 212.409C89.5972 212.409 91.3835 212.092 93.0814 211.46C94.8146 210.793 96.2472 209.967 97.3792 208.984C98.0169 208.427 98.5121 207.866 98.8648 207.299V205.506L99.4485 205.875C99.3522 206.353 99.1576 206.828 98.8648 207.299V209.985C98.8648 211.952 98.4757 213.62 97.6975 214.99C96.9193 216.36 95.8228 217.396 94.4079 218.099C92.993 218.801 91.2951 219.153 89.3142 219.153C88.4805 219.153 86.0481 219.153 83.5865 218.486C81.3218 217.874 78.3996 218.545 77.429 220.681V220.681C78.7025 221.629 80.3826 222.419 82.4696 223.052ZM94.1956 206.191C92.6746 206.999 90.9237 207.403 88.9428 207.403C86.9266 207.403 85.1403 206.999 83.5839 206.191C82.0275 205.384 80.7894 204.277 79.8697 202.872C78.9854 201.432 78.5433 199.816 78.5433 198.025C78.5433 196.233 78.9854 194.635 79.8697 193.23C80.7894 191.79 82.0275 190.666 83.5839 189.858C85.1403 189.015 86.9266 188.594 88.9428 188.594C90.9237 188.594 92.6746 188.997 94.1956 189.805C95.7167 190.613 96.9016 191.737 97.7506 193.177C98.6349 194.582 99.077 196.198 99.077 198.025C99.077 199.851 98.6526 201.467 97.8036 202.872C96.9547 204.277 95.752 205.384 94.1956 206.191Z" fill="#578F47"/>
<path d="M100.032 190.28C99.9614 189.647 99.643 189.015 99.077 188.383C99.0089 188.297 98.9382 188.212 98.8648 188.128V190.701L100.032 190.28Z" fill="#578F47"/>
<path d="M99.4485 205.875L98.8648 205.506V207.299C99.1576 206.828 99.3522 206.353 99.4485 205.875Z" fill="#578F47"/>
<mask id="path-2-outside-1_217_136" maskUnits="userSpaceOnUse" x="0" y="232" width="324" height="20" fill="black">
<rect fill="white" y="232" width="324" height="20"/>
<path d="M1 233.316H5.29838C6.21572 233.316 7.08501 233.439 7.90625 233.684C8.73622 233.93 9.40456 234.355 9.91128 234.961C10.4267 235.557 10.6845 236.399 10.6845 237.487C10.6845 238.241 10.5359 238.925 10.2389 239.539C9.94186 240.154 9.58366 240.649 9.16431 241.026C8.74495 241.404 8.35181 241.614 7.98487 241.658C8.27318 241.675 8.61827 241.772 9.02016 241.947C9.42204 242.123 9.81518 242.382 10.1996 242.724C10.5927 243.057 10.916 243.482 11.1693 244C11.4314 244.518 11.5625 245.123 11.5625 245.816C11.5625 246.763 11.379 247.605 11.0121 248.342C10.6539 249.07 10.0948 249.645 9.33467 250.066C8.57459 250.478 7.5961 250.684 6.39919 250.684H1V233.316ZM2.44153 249.382H6.50403C7.45631 249.382 8.18581 249.211 8.69254 248.868C9.20799 248.518 9.56182 248.07 9.75403 247.526C9.95497 246.974 10.0554 246.408 10.0554 245.829C10.0554 244.864 9.73219 244.061 9.08568 243.421C8.44791 242.781 7.5131 242.461 6.28125 242.461H2.44153V249.382ZM2.44153 241.184H5.95363C6.70497 241.184 7.3209 241.009 7.80141 240.658C8.28192 240.298 8.63575 239.851 8.8629 239.316C9.09879 238.781 9.21673 238.246 9.21673 237.711C9.21673 236.57 8.88037 235.772 8.20766 235.316C7.53494 234.851 6.63508 234.618 5.50806 234.618H2.44153V241.184Z"/>
<path d="M65.3056 233.316H70.8883C71.7881 233.316 72.6137 233.504 73.3651 233.882C74.1252 234.259 74.7323 234.811 75.1866 235.539C75.6497 236.268 75.8812 237.167 75.8812 238.237C75.8812 239.298 75.6584 240.184 75.2129 240.895C74.776 241.596 74.2475 242.127 73.6272 242.487C73.0156 242.838 72.4434 243.022 71.9104 243.039L76.235 250.684H74.5576L70.4165 243.145H66.7733V250.684H65.3056V233.316ZM66.7733 241.947H70.3903C71.5697 241.947 72.5264 241.649 73.2602 241.053C74.0028 240.456 74.3741 239.526 74.3741 238.263C74.3741 236.991 74.0072 236.07 73.2733 235.5C72.5395 234.921 71.5785 234.632 70.3903 234.632H66.7733V241.947Z"/>
<path d="M133.746 233.316H135.358L141.556 250.684H139.997L138.385 246.184H130.732L129.107 250.684H127.521L133.746 233.316ZM131.177 244.803H137.952L134.571 235.171H134.532L131.177 244.803Z"/>
<path d="M199.186 233C200.147 233 200.964 233.114 201.637 233.342C202.318 233.57 202.851 233.811 203.236 234.066C203.62 234.311 203.843 234.469 203.904 234.539L203.092 235.776C202.961 235.662 202.729 235.496 202.397 235.276C202.074 235.057 201.654 234.86 201.139 234.684C200.624 234.5 200.012 234.408 199.304 234.408C198.177 234.408 197.291 234.645 196.644 235.118C195.998 235.592 195.674 236.25 195.674 237.092C195.674 237.662 195.845 238.162 196.185 238.592C196.526 239.013 196.989 239.395 197.574 239.737C198.169 240.079 198.837 240.421 199.58 240.763C200.165 241.026 200.75 241.32 201.336 241.645C201.93 241.969 202.471 242.351 202.961 242.789C203.459 243.228 203.856 243.737 204.153 244.316C204.459 244.895 204.612 245.566 204.612 246.329C204.612 247.022 204.472 247.654 204.192 248.224C203.913 248.794 203.515 249.289 203 249.711C202.493 250.123 201.89 250.443 201.191 250.671C200.493 250.89 199.724 251 198.885 251C197.889 251 196.985 250.873 196.172 250.618C195.36 250.355 194.705 250.088 194.207 249.816C193.709 249.535 193.433 249.368 193.381 249.316L194.259 248.013C194.364 248.101 194.547 248.232 194.809 248.408C195.08 248.575 195.417 248.75 195.818 248.934C196.22 249.118 196.683 249.272 197.208 249.395C197.74 249.518 198.317 249.579 198.937 249.579C200.283 249.579 201.301 249.263 201.991 248.632C202.69 248 203.039 247.206 203.039 246.25C203.039 245.504 202.816 244.868 202.371 244.342C201.925 243.807 201.353 243.338 200.654 242.934C199.955 242.531 199.226 242.149 198.466 241.789C197.662 241.412 196.932 241.009 196.277 240.579C195.622 240.149 195.098 239.649 194.705 239.079C194.311 238.509 194.115 237.825 194.115 237.026C194.115 236.246 194.338 235.553 194.783 234.947C195.237 234.342 195.845 233.868 196.605 233.526C197.374 233.175 198.234 233 199.186 233Z"/>
<path d="M258.49 233.316H259.971V250.684H258.49V233.316Z"/>
<path d="M314.482 233.316H315.95V249.303H323V250.684H314.482V233.316Z"/>
</mask>
<path d="M1 233.316H5.29838C6.21572 233.316 7.08501 233.439 7.90625 233.684C8.73622 233.93 9.40456 234.355 9.91128 234.961C10.4267 235.557 10.6845 236.399 10.6845 237.487C10.6845 238.241 10.5359 238.925 10.2389 239.539C9.94186 240.154 9.58366 240.649 9.16431 241.026C8.74495 241.404 8.35181 241.614 7.98487 241.658C8.27318 241.675 8.61827 241.772 9.02016 241.947C9.42204 242.123 9.81518 242.382 10.1996 242.724C10.5927 243.057 10.916 243.482 11.1693 244C11.4314 244.518 11.5625 245.123 11.5625 245.816C11.5625 246.763 11.379 247.605 11.0121 248.342C10.6539 249.07 10.0948 249.645 9.33467 250.066C8.57459 250.478 7.5961 250.684 6.39919 250.684H1V233.316ZM2.44153 249.382H6.50403C7.45631 249.382 8.18581 249.211 8.69254 248.868C9.20799 248.518 9.56182 248.07 9.75403 247.526C9.95497 246.974 10.0554 246.408 10.0554 245.829C10.0554 244.864 9.73219 244.061 9.08568 243.421C8.44791 242.781 7.5131 242.461 6.28125 242.461H2.44153V249.382ZM2.44153 241.184H5.95363C6.70497 241.184 7.3209 241.009 7.80141 240.658C8.28192 240.298 8.63575 239.851 8.8629 239.316C9.09879 238.781 9.21673 238.246 9.21673 237.711C9.21673 236.57 8.88037 235.772 8.20766 235.316C7.53494 234.851 6.63508 234.618 5.50806 234.618H2.44153V241.184Z" fill="#FEB700"/>
<path d="M65.3056 233.316H70.8883C71.7881 233.316 72.6137 233.504 73.3651 233.882C74.1252 234.259 74.7323 234.811 75.1866 235.539C75.6497 236.268 75.8812 237.167 75.8812 238.237C75.8812 239.298 75.6584 240.184 75.2129 240.895C74.776 241.596 74.2475 242.127 73.6272 242.487C73.0156 242.838 72.4434 243.022 71.9104 243.039L76.235 250.684H74.5576L70.4165 243.145H66.7733V250.684H65.3056V233.316ZM66.7733 241.947H70.3903C71.5697 241.947 72.5264 241.649 73.2602 241.053C74.0028 240.456 74.3741 239.526 74.3741 238.263C74.3741 236.991 74.0072 236.07 73.2733 235.5C72.5395 234.921 71.5785 234.632 70.3903 234.632H66.7733V241.947Z" fill="#FEB700"/>
<path d="M133.746 233.316H135.358L141.556 250.684H139.997L138.385 246.184H130.732L129.107 250.684H127.521L133.746 233.316ZM131.177 244.803H137.952L134.571 235.171H134.532L131.177 244.803Z" fill="#FEB700"/>
<path d="M199.186 233C200.147 233 200.964 233.114 201.637 233.342C202.318 233.57 202.851 233.811 203.236 234.066C203.62 234.311 203.843 234.469 203.904 234.539L203.092 235.776C202.961 235.662 202.729 235.496 202.397 235.276C202.074 235.057 201.654 234.86 201.139 234.684C200.624 234.5 200.012 234.408 199.304 234.408C198.177 234.408 197.291 234.645 196.644 235.118C195.998 235.592 195.674 236.25 195.674 237.092C195.674 237.662 195.845 238.162 196.185 238.592C196.526 239.013 196.989 239.395 197.574 239.737C198.169 240.079 198.837 240.421 199.58 240.763C200.165 241.026 200.75 241.32 201.336 241.645C201.93 241.969 202.471 242.351 202.961 242.789C203.459 243.228 203.856 243.737 204.153 244.316C204.459 244.895 204.612 245.566 204.612 246.329C204.612 247.022 204.472 247.654 204.192 248.224C203.913 248.794 203.515 249.289 203 249.711C202.493 250.123 201.89 250.443 201.191 250.671C200.493 250.89 199.724 251 198.885 251C197.889 251 196.985 250.873 196.172 250.618C195.36 250.355 194.705 250.088 194.207 249.816C193.709 249.535 193.433 249.368 193.381 249.316L194.259 248.013C194.364 248.101 194.547 248.232 194.809 248.408C195.08 248.575 195.417 248.75 195.818 248.934C196.22 249.118 196.683 249.272 197.208 249.395C197.74 249.518 198.317 249.579 198.937 249.579C200.283 249.579 201.301 249.263 201.991 248.632C202.69 248 203.039 247.206 203.039 246.25C203.039 245.504 202.816 244.868 202.371 244.342C201.925 243.807 201.353 243.338 200.654 242.934C199.955 242.531 199.226 242.149 198.466 241.789C197.662 241.412 196.932 241.009 196.277 240.579C195.622 240.149 195.098 239.649 194.705 239.079C194.311 238.509 194.115 237.825 194.115 237.026C194.115 236.246 194.338 235.553 194.783 234.947C195.237 234.342 195.845 233.868 196.605 233.526C197.374 233.175 198.234 233 199.186 233Z" fill="#FEB700"/>
<path d="M258.49 233.316H259.971V250.684H258.49V233.316Z" fill="#FEB700"/>
<path d="M314.482 233.316H315.95V249.303H323V250.684H314.482V233.316Z" fill="#FEB700"/>
<path d="M1 233.316H5.29838C6.21572 233.316 7.08501 233.439 7.90625 233.684C8.73622 233.93 9.40456 234.355 9.91128 234.961C10.4267 235.557 10.6845 236.399 10.6845 237.487C10.6845 238.241 10.5359 238.925 10.2389 239.539C9.94186 240.154 9.58366 240.649 9.16431 241.026C8.74495 241.404 8.35181 241.614 7.98487 241.658C8.27318 241.675 8.61827 241.772 9.02016 241.947C9.42204 242.123 9.81518 242.382 10.1996 242.724C10.5927 243.057 10.916 243.482 11.1693 244C11.4314 244.518 11.5625 245.123 11.5625 245.816C11.5625 246.763 11.379 247.605 11.0121 248.342C10.6539 249.07 10.0948 249.645 9.33467 250.066C8.57459 250.478 7.5961 250.684 6.39919 250.684H1V233.316ZM2.44153 249.382H6.50403C7.45631 249.382 8.18581 249.211 8.69254 248.868C9.20799 248.518 9.56182 248.07 9.75403 247.526C9.95497 246.974 10.0554 246.408 10.0554 245.829C10.0554 244.864 9.73219 244.061 9.08568 243.421C8.44791 242.781 7.5131 242.461 6.28125 242.461H2.44153V249.382ZM2.44153 241.184H5.95363C6.70497 241.184 7.3209 241.009 7.80141 240.658C8.28192 240.298 8.63575 239.851 8.8629 239.316C9.09879 238.781 9.21673 238.246 9.21673 237.711C9.21673 236.57 8.88037 235.772 8.20766 235.316C7.53494 234.851 6.63508 234.618 5.50806 234.618H2.44153V241.184Z" stroke="#FEB700" mask="url(#path-2-outside-1_217_136)"/>
<path d="M65.3056 233.316H70.8883C71.7881 233.316 72.6137 233.504 73.3651 233.882C74.1252 234.259 74.7323 234.811 75.1866 235.539C75.6497 236.268 75.8812 237.167 75.8812 238.237C75.8812 239.298 75.6584 240.184 75.2129 240.895C74.776 241.596 74.2475 242.127 73.6272 242.487C73.0156 242.838 72.4434 243.022 71.9104 243.039L76.235 250.684H74.5576L70.4165 243.145H66.7733V250.684H65.3056V233.316ZM66.7733 241.947H70.3903C71.5697 241.947 72.5264 241.649 73.2602 241.053C74.0028 240.456 74.3741 239.526 74.3741 238.263C74.3741 236.991 74.0072 236.07 73.2733 235.5C72.5395 234.921 71.5785 234.632 70.3903 234.632H66.7733V241.947Z" stroke="#FEB700" mask="url(#path-2-outside-1_217_136)"/>
<path d="M133.746 233.316H135.358L141.556 250.684H139.997L138.385 246.184H130.732L129.107 250.684H127.521L133.746 233.316ZM131.177 244.803H137.952L134.571 235.171H134.532L131.177 244.803Z" stroke="#FEB700" mask="url(#path-2-outside-1_217_136)"/>
<path d="M199.186 233C200.147 233 200.964 233.114 201.637 233.342C202.318 233.57 202.851 233.811 203.236 234.066C203.62 234.311 203.843 234.469 203.904 234.539L203.092 235.776C202.961 235.662 202.729 235.496 202.397 235.276C202.074 235.057 201.654 234.86 201.139 234.684C200.624 234.5 200.012 234.408 199.304 234.408C198.177 234.408 197.291 234.645 196.644 235.118C195.998 235.592 195.674 236.25 195.674 237.092C195.674 237.662 195.845 238.162 196.185 238.592C196.526 239.013 196.989 239.395 197.574 239.737C198.169 240.079 198.837 240.421 199.58 240.763C200.165 241.026 200.75 241.32 201.336 241.645C201.93 241.969 202.471 242.351 202.961 242.789C203.459 243.228 203.856 243.737 204.153 244.316C204.459 244.895 204.612 245.566 204.612 246.329C204.612 247.022 204.472 247.654 204.192 248.224C203.913 248.794 203.515 249.289 203 249.711C202.493 250.123 201.89 250.443 201.191 250.671C200.493 250.89 199.724 251 198.885 251C197.889 251 196.985 250.873 196.172 250.618C195.36 250.355 194.705 250.088 194.207 249.816C193.709 249.535 193.433 249.368 193.381 249.316L194.259 248.013C194.364 248.101 194.547 248.232 194.809 248.408C195.08 248.575 195.417 248.75 195.818 248.934C196.22 249.118 196.683 249.272 197.208 249.395C197.74 249.518 198.317 249.579 198.937 249.579C200.283 249.579 201.301 249.263 201.991 248.632C202.69 248 203.039 247.206 203.039 246.25C203.039 245.504 202.816 244.868 202.371 244.342C201.925 243.807 201.353 243.338 200.654 242.934C199.955 242.531 199.226 242.149 198.466 241.789C197.662 241.412 196.932 241.009 196.277 240.579C195.622 240.149 195.098 239.649 194.705 239.079C194.311 238.509 194.115 237.825 194.115 237.026C194.115 236.246 194.338 235.553 194.783 234.947C195.237 234.342 195.845 233.868 196.605 233.526C197.374 233.175 198.234 233 199.186 233Z" stroke="#FEB700" mask="url(#path-2-outside-1_217_136)"/>
<path d="M258.49 233.316H259.971V250.684H258.49V233.316Z" stroke="#FEB700" mask="url(#path-2-outside-1_217_136)"/>
<path d="M314.482 233.316H315.95V249.303H323V250.684H314.482V233.316Z" stroke="#FEB700" mask="url(#path-2-outside-1_217_136)"/>
<path d="M129.684 65.2502L213.391 115.894C213.391 102.09 206.184 89.292 194.395 82.1591L110.689 31.515C110.689 45.3194 117.895 58.1172 129.684 65.2502Z" fill="#FEB700"/>
<path d="M151.25 0H171.122V22.8277L196.445 37.8434C208.281 44.862 215.542 57.6237 215.542 71.4096L151.25 33.618V11.3757V0Z" fill="#578F47"/>
<path d="M172.525 146.62H151.994V123.127L127.214 108.556C115.371 101.592 108.073 88.8871 108 75.1338L172.244 113.008L172.525 113.174V135.199V146.62Z" fill="#578F47"/>
</svg>
